<?xml version="1.0" encoding="utf-8"?>
<!-- Generator: Adobe Illustrator 19.2.0, SVG Export Plug-In . SVG Version: 6.00 Build 0)  -->
<svg version="1.1" id="Layer_1" xmlns="http://www.w3.org/2000/svg" xmlns:xlink="http://www.w3.org/1999/xlink" x="0px" y="0px"
	 viewBox="0 0 763.9 476.9" style="enable-background:new 0 0 763.9 476.9;" xml:space="preserve">
<style type="text/css">
	.st0{fill:#E2E5ED;}
	.st1{fill:#F5F4EA;}
	.st2{fill:#E5E0C8;}
	.st3{fill:none;stroke:#232A40;stroke-width:4;stroke-linecap:round;stroke-linejoin:round;stroke-miterlimit:10;}
	.st4{fill:#222A3F;}
	.st5{fill:#F0BF55;}
	.st6{fill:#FFFFFF;}
	.st7{fill:#2D364C;}
	.st8{fill:none;stroke:#EEBE5E;stroke-width:7;stroke-linecap:round;stroke-linejoin:round;stroke-miterlimit:10;}
	.st9{fill:none;stroke:#434E63;stroke-width:7;stroke-linecap:round;stroke-linejoin:round;stroke-miterlimit:10;}
	.st10{fill:none;stroke:#222A3F;stroke-width:7;stroke-linecap:round;stroke-linejoin:round;stroke-miterlimit:10;}
	.st11{opacity:0.3;}
	.st12{opacity:0.13;}
	.st13{fill:#FFE7C5;}
	.st14{fill:#E2AF53;}
</style>
<g>
	<ellipse class="st0" cx="401.4" cy="399.1" rx="271.5" ry="13.6"/>
	<g>
		<path class="st1" d="M595.1,155.9v-18.4c0-2.8-2.3-5-5-5H215c-2.8,0-5,2.3-5,5v254.3c0,2.8,2.3,5,5,5h375.1c2.8,0,5-2.3,5-5V158.5
			V155.9L595.1,155.9z"/>
		<g>
			<polygon class="st2" points="210,391.9 210,137.6 210,137.6 210,137.6 210,391.9 210,391.9 			"/>
		</g>
		<g>
			<path class="st3" d="M595.1,155.9L595.1,155.9l0-18.4c0-2.8-2.3-5-5-5H215c-2.8,0-5,2.3-5,5v254.3c0,2.8,2.3,5,5,5h375.1
				c2.8,0,5-2.3,5-5V158.5L595.1,155.9z M215,136.3h375.1c0.7,0,1.3,0.6,1.3,1.3v18.4l-377.7,0v-18.3
				C213.7,136.9,214.3,136.3,215,136.3z M590.1,393.3H215c-0.7,0-1.3-0.6-1.3-1.3V159.6l377.7,0v232.3
				C591.4,392.6,590.8,393.3,590.1,393.3z"/>
			<circle class="st4" cx="223.9" cy="146.8" r="2.8"/>
			<circle class="st4" cx="235" cy="146.8" r="2.8"/>
			<circle class="st4" cx="246.1" cy="146.8" r="2.8"/>
		</g>
		<g>
			<path class="st5" d="M576,180.8h-14.1c-0.4,0-0.7-0.3-0.7-0.7v-4.7c0-0.4,0.3-0.7,0.7-0.7H576c0.4,0,0.7,0.3,0.7,0.7v4.7
				C576.7,180.5,576.4,180.8,576,180.8z"/>
			<path class="st5" d="M549.3,180.8h-14.1c-0.4,0-0.7-0.3-0.7-0.7v-4.7c0-0.4,0.3-0.7,0.7-0.7h14.1c0.4,0,0.7,0.3,0.7,0.7v4.7
				C550,180.5,549.7,180.8,549.3,180.8z"/>
			<path class="st5" d="M522.6,180.8h-14.1c-0.4,0-0.7-0.3-0.7-0.7v-4.7c0-0.4,0.3-0.7,0.7-0.7h14.1c0.4,0,0.7,0.3,0.7,0.7v4.7
				C523.2,180.5,522.9,180.8,522.6,180.8z"/>
			<path class="st5" d="M495.9,180.8h-14.1c-0.4,0-0.7-0.3-0.7-0.7v-4.7c0-0.4,0.3-0.7,0.7-0.7h14.1c0.4,0,0.7,0.3,0.7,0.7v4.7
				C496.5,180.5,496.2,180.8,495.9,180.8z"/>
			<circle class="st5" cx="234.4" cy="177.8" r="9.1"/>
		</g>
	</g>
	<g>
		<g>
			<g>
				<path class="st5" d="M324.3,277.6h-39.9c-0.3,0-0.5,0.2-0.5,0.5v2.4c0,0.3,0.2,0.5,0.5,0.5h39.9c0.3,0,0.5-0.2,0.5-0.5v-2.4
					C324.8,277.8,324.6,277.6,324.3,277.6z"/>
				<path class="st2" d="M334.3,267.3h-59.9c-0.3,0-0.6,0.2-0.6,0.6v3.7c0,0.3,0.2,0.6,0.6,0.6h59.9c0.3,0,0.6-0.2,0.6-0.6v-3.7
					C334.9,267.5,334.6,267.3,334.3,267.3z"/>
				<path class="st2" d="M328,260.3h-47.3c-0.3,0-0.6,0.2-0.6,0.6v3.7c0,0.3,0.2,0.6,0.6,0.6H328c0.3,0,0.6-0.2,0.6-0.6v-3.7
					C328.6,260.5,328.3,260.3,328,260.3z"/>
				<g>
					<circle class="st5" cx="304.4" cy="230.5" r="18.7"/>
					<g>
						<path class="st6" d="M316.2,234.4l-7.4-9.2c-0.4-0.6-1.3-0.6-1.7,0l-3.7,4.7c-0.4,0.5-1.1,0.6-1.6,0.2l-1.5-1.2
							c-0.4-0.3-1.1-0.3-1.5,0.1l-5.6,5.4c-0.7,0.7-0.2,1.9,0.8,1.9h21.4C316.2,236.2,316.8,235.2,316.2,234.4z"/>
						<circle class="st6" cx="296.4" cy="224.8" r="2.1"/>
					</g>
				</g>
			</g>
			<g>
				<path class="st5" d="M422.6,277.6h-39.9c-0.3,0-0.5,0.2-0.5,0.5v2.4c0,0.3,0.2,0.5,0.5,0.5h39.9c0.3,0,0.5-0.2,0.5-0.5v-2.4
					C423.1,277.8,422.9,277.6,422.6,277.6z"/>
				<path class="st2" d="M432.6,267.3h-59.9c-0.3,0-0.6,0.2-0.6,0.6v3.7c0,0.3,0.2,0.6,0.6,0.6h59.9c0.3,0,0.6-0.2,0.6-0.6v-3.7
					C433.2,267.5,432.9,267.3,432.6,267.3z"/>
				<path class="st2" d="M426.3,260.3H379c-0.3,0-0.6,0.2-0.6,0.6v3.7c0,0.3,0.2,0.6,0.6,0.6h47.3c0.3,0,0.6-0.2,0.6-0.6v-3.7
					C426.9,260.5,426.6,260.3,426.3,260.3z"/>
				<g>
					<circle class="st5" cx="402.7" cy="230.5" r="18.7"/>
					<g>
						<path class="st6" d="M414.5,234.4l-7.4-9.2c-0.4-0.6-1.3-0.6-1.7,0l-3.7,4.7c-0.4,0.5-1.1,0.6-1.6,0.2l-1.5-1.2
							c-0.4-0.3-1.1-0.3-1.5,0.1l-5.6,5.4c-0.7,0.7-0.2,1.9,0.8,1.9h21.4C414.5,236.2,415,235.2,414.5,234.4z"/>
						<circle class="st6" cx="394.7" cy="224.8" r="2.1"/>
					</g>
				</g>
			</g>
			<g>
				<path class="st5" d="M520.7,277.6h-39.9c-0.3,0-0.5,0.2-0.5,0.5v2.4c0,0.3,0.2,0.5,0.5,0.5h39.9c0.3,0,0.5-0.2,0.5-0.5v-2.4
					C521.1,277.8,520.9,277.6,520.7,277.6z"/>
				<path class="st2" d="M530.7,267.3h-59.9c-0.3,0-0.6,0.2-0.6,0.6v3.7c0,0.3,0.2,0.6,0.6,0.6h59.9c0.3,0,0.6-0.2,0.6-0.6v-3.7
					C531.2,267.5,531,267.3,530.7,267.3z"/>
				<path class="st2" d="M524.4,260.3h-47.3c-0.3,0-0.6,0.2-0.6,0.6v3.7c0,0.3,0.2,0.6,0.6,0.6h47.3c0.3,0,0.6-0.2,0.6-0.6v-3.7
					C524.9,260.5,524.7,260.3,524.4,260.3z"/>
				<g>
					<circle class="st5" cx="500.7" cy="230.5" r="18.7"/>
					<g>
						<path class="st6" d="M512.5,234.4l-7.4-9.2c-0.4-0.6-1.3-0.6-1.7,0l-3.7,4.7c-0.4,0.5-1.1,0.6-1.6,0.2l-1.5-1.2
							c-0.4-0.3-1.1-0.3-1.5,0.1l-5.6,5.4c-0.7,0.7-0.2,1.9,0.8,1.9h21.4C512.6,236.2,513.1,235.2,512.5,234.4z"/>
						<circle class="st6" cx="492.7" cy="224.8" r="2.1"/>
					</g>
				</g>
			</g>
		</g>
		<path class="st2" d="M528,301.7H316.2l-11.1-11.1c-0.7-0.7-1.8-0.7-2.4,0l-11.1,11.1h-14.6c-1.8,0-3.2,1.4-3.2,3.2v59.6
			c0,1.8,1.4,3.2,3.2,3.2H528c1.8,0,3.2-1.4,3.2-3.2v-59.6C531.2,303.2,529.8,301.7,528,301.7z"/>
		<g>
			<g>
				<g>
					<path class="st6" d="M284.4,360.2h100.7c0.6,0,1.1-0.5,1.1-1.1v-48.9c0-0.6-0.5-1.1-1.1-1.1H284.6c-0.7,0-1.3,0.6-1.3,1.3v48.7
						C283.4,359.7,283.8,360.2,284.4,360.2z"/>
				</g>
			</g>
			<g>
				<path class="st2" d="M353.3,343l-11.8-15.8c-0.7-0.9-2.1-0.9-2.8,0l-5.9,7.9c-0.6,0.8-1.7,1-2.5,0.3l-2.4-2
					c-0.7-0.6-1.7-0.5-2.3,0.1l-8.9,9.2c-1.1,1.2-0.4,3.3,1.2,3.3h34C353.4,346.1,354.2,344.2,353.3,343z"/>
				<ellipse class="st2" cx="321.7" cy="326.5" rx="3.4" ry="3.6"/>
			</g>
		</g>
		<path class="st1" d="M491.8,316.4H401c-0.2,0-0.4,0.2-0.4,0.4v2.9c0,0.2,0.2,0.4,0.4,0.4h90.8c0.2,0,0.4-0.2,0.4-0.4v-2.9
			C492.2,316.6,492,316.4,491.8,316.4z"/>
		<path class="st1" d="M435.1,336.2h-34.2c-0.2,0-0.3,0.1-0.3,0.3v3.2c0,0.2,0.1,0.3,0.3,0.3h34.2c0.2,0,0.3-0.1,0.3-0.3v-3.2
			C435.3,336.3,435.2,336.2,435.1,336.2z"/>
		<path class="st1" d="M484.2,309.7h-83.1c-0.3,0-0.5,0.2-0.5,0.5v2.8c0,0.3,0.2,0.5,0.5,0.5h83.1c0.3,0,0.5-0.2,0.5-0.5v-2.8
			C484.6,309.9,484.4,309.7,484.2,309.7z"/>
		<path class="st1" d="M485.5,329.6h-84.5c-0.3,0-0.5,0.2-0.5,0.5v2.8c0,0.3,0.2,0.5,0.5,0.5h84.5c0.3,0,0.5-0.2,0.5-0.5v-2.8
			C486,329.8,485.8,329.6,485.5,329.6z"/>
		<path class="st1" d="M473,323H401c-0.2,0-0.4,0.2-0.4,0.4v2.9c0,0.2,0.2,0.4,0.4,0.4H473c0.2,0,0.4-0.2,0.4-0.4v-2.9
			C473.4,323.2,473.2,323,473,323z"/>
		<path class="st1" d="M491.8,349.8H401c-0.2,0-0.4,0.2-0.4,0.4v2.9c0,0.2,0.2,0.4,0.4,0.4h90.8c0.2,0,0.4-0.2,0.4-0.4v-2.9
			C492.2,350,492,349.8,491.8,349.8z"/>
		<path class="st1" d="M473,356.4H401c-0.2,0-0.4,0.2-0.4,0.4v2.9c0,0.2,0.2,0.4,0.4,0.4H473c0.2,0,0.4-0.2,0.4-0.4v-2.9
			C473.4,356.6,473.2,356.4,473,356.4z"/>
	</g>
	<path class="st7" d="M402.9,399.1h187.4c4.1,0,7.4-3.3,7.4-7.4v-254c0-4.1-3.3-7.4-7.4-7.4H402.9V399.1z"/>
	<line class="st8" x1="408.9" y1="174.8" x2="461.1" y2="174.8"/>
	<line class="st9" x1="480.3" y1="174.8" x2="532.4" y2="174.8"/>
	<line class="st9" x1="513" y1="211.8" x2="542.3" y2="211.8"/>
	<line class="st10" x1="549.8" y1="174.8" x2="562.9" y2="174.8"/>
	<line class="st10" x1="479.4" y1="211.8" x2="492.6" y2="211.8"/>
	<line class="st9" x1="408.9" y1="193.3" x2="524.9" y2="193.3"/>
	<line class="st9" x1="408.9" y1="211.8" x2="461.1" y2="211.8"/>
	<line class="st8" x1="408.9" y1="246.6" x2="461.1" y2="246.6"/>
	<line class="st9" x1="480.3" y1="246.6" x2="532.4" y2="246.6"/>
	<path class="st9" d="M542.3,283.6"/>
	<path class="st9" d="M513,283.6"/>
	<line class="st10" x1="549.8" y1="246.6" x2="562.9" y2="246.6"/>
	<line class="st10" x1="479.4" y1="283.6" x2="515.5" y2="283.6"/>
	<line class="st9" x1="408.9" y1="265.1" x2="489.2" y2="265.1"/>
	<line class="st9" x1="408.9" y1="283.6" x2="461.1" y2="283.6"/>
	<line class="st8" x1="408.9" y1="318.4" x2="461.1" y2="318.4"/>
	<line class="st9" x1="480.3" y1="318.4" x2="532.4" y2="318.4"/>
	<line class="st9" x1="505.4" y1="336.9" x2="534.7" y2="336.9"/>
	<line class="st10" x1="549.8" y1="318.4" x2="562.9" y2="318.4"/>
	<line class="st10" x1="479.4" y1="355.3" x2="492.6" y2="355.3"/>
	<line class="st9" x1="408.9" y1="336.9" x2="489.2" y2="336.9"/>
	<line class="st9" x1="408.9" y1="355.3" x2="461.1" y2="355.3"/>
	<polygon class="st11" points="402.9,399.1 421.4,399.1 455.8,130.3 402.9,130.3 	"/>
	<path class="st12" d="M295.7,333.8c0-0.1,0.1-0.1,0.1-0.2c0,0,0-0.1,0.1-0.1c0.1-0.1,0.1-0.2,0.1-0.3c0-0.1,0.1-0.2,0.1-0.3
		c0-0.1,0.1-0.2,0.1-0.3c0-0.1,0.1-0.2,0.1-0.3c0-0.1,0-0.2,0-0.3c0-0.1,0-0.2,0-0.3c0-0.1,0-0.2,0-0.3c0-0.1,0-0.2,0-0.3
		c0-0.1,0-0.2,0-0.3c0-0.1,0-0.2-0.1-0.3c0-0.1-0.1-0.2-0.1-0.2c0-0.1-0.1-0.2-0.1-0.3c0-0.1,0-0.1-0.1-0.2c0,0,0,0,0-0.1
		c-0.1-0.1-0.1-0.2-0.2-0.3c-0.1-0.1-0.1-0.1-0.2-0.2c0,0,0,0,0-0.1L274.9,306c0,0-0.1-0.1-0.1-0.1c-0.1-0.1-0.1-0.1-0.2-0.2
		c-0.1-0.1-0.1-0.1-0.2-0.2c-0.1-0.1-0.1-0.1-0.2-0.2c-0.1-0.1-0.2-0.1-0.2-0.2c-0.1-0.1-0.2-0.1-0.2-0.1c-0.1-0.1-0.2-0.1-0.3-0.1
		c-0.1,0-0.2-0.1-0.3-0.1c-0.1,0-0.2-0.1-0.3-0.1c-0.1,0-0.2-0.1-0.3-0.1c-0.1,0-0.2-0.1-0.3-0.1c-0.1,0-0.2,0-0.3-0.1
		c-0.1,0-0.2,0-0.4-0.1c-0.1,0-0.1,0-0.2,0l-51.2-6c0,0,0,0,0,0l0,0c0,0-0.1,0-0.1,0c-0.2,0-0.4,0-0.6,0c0,0,0,0,0,0c0,0,0,0,0,0
		c-0.1,0-0.2,0-0.3,0c-0.1,0-0.3,0-0.4,0l-51.2,6c-0.1,0-0.1,0-0.2,0c-0.1,0-0.2,0-0.3,0.1c-0.1,0-0.2,0-0.3,0.1
		c-0.1,0-0.2,0.1-0.3,0.1c-0.1,0-0.2,0.1-0.3,0.1c-0.1,0-0.2,0.1-0.3,0.1c-0.1,0-0.2,0.1-0.3,0.1c-0.1,0-0.2,0.1-0.3,0.1
		c-0.1,0-0.2,0.1-0.2,0.1c-0.1,0.1-0.2,0.1-0.2,0.2c-0.1,0.1-0.1,0.1-0.2,0.2c-0.1,0.1-0.1,0.1-0.2,0.2c-0.1,0.1-0.1,0.1-0.2,0.2
		c0,0-0.1,0.1-0.1,0.1l20.2,13.7c0,0,0,0,0,0.1c-0.1,0.1-0.1,0.1-0.2,0.2c-0.1,0.1-0.1,0.2-0.2,0.3c0,0,0,0,0,0.1
		c0,0.1,0,0.1-0.1,0.2c-0.1,0.1-0.1,0.2-0.1,0.3c0,0.1-0.1,0.2-0.1,0.2c0,0.1-0.1,0.2-0.1,0.3c0,0.1,0,0.2,0,0.3c0,0.1,0,0.2,0,0.3
		c0,0.1,0,0.2,0,0.3c0,0.1,0,0.2,0,0.3c0,0.1,0,0.2,0,0.2c0,0.1,0.1,0.2,0.1,0.3c0,0.1,0.1,0.2,0.1,0.2c0,0.1,0.1,0.2,0.1,0.3
		c0,0.1,0.1,0.2,0.1,0.2c0,0,0,0.1,0.1,0.1c0,0.1,0.1,0.1,0.1,0.2c0.1,0.1,0.1,0.1,0.2,0.2c0.1,0.1,0.2,0.2,0.3,0.3
		c0,0,0.1,0.1,0.1,0.1l31,73.1c0,0,0.1,0,0.1,0.1c0.1,0.1,0.2,0.2,0.3,0.2c0.1,0,0.1,0.1,0.2,0.1c0,0,0.1,0,0.1,0.1
		c0,0,0.1,0.1,0.1,0.1c0.1,0,0.1,0.1,0.2,0.1c0,0,0.1,0,0.1,0.1c0.1,0,0.1,0.1,0.2,0.1c0.1,0,0.2,0.1,0.3,0.1c0,0,0.1,0,0.1,0
		c0.1,0,0.2,0.1,0.3,0.1c0.1,0,0.2,0.1,0.3,0.1c0.1,0,0.2,0,0.3,0.1c0.1,0,0.1,0,0.2,0c0.1,0,0.1,0,0.2,0c0.2,0,0.5,0,0.7,0h0h0
		c0,0,0,0,0,0c0,0,0,0,0,0c0.2,0,0.5,0,0.7,0c0.1,0,0.1,0,0.2,0c0.1,0,0.1,0,0.2,0c0.1,0,0.2,0,0.3-0.1c0.1,0,0.2,0,0.3-0.1
		c0.1,0,0.2-0.1,0.3-0.1c0,0,0.1,0,0.1,0c0.1,0,0.2-0.1,0.3-0.1c0.1,0,0.1-0.1,0.2-0.1c0,0,0.1,0,0.1-0.1c0.1,0,0.1-0.1,0.2-0.1
		c0.1,0,0.1-0.1,0.2-0.1c0,0,0.1,0,0.1-0.1c0.1,0,0.2-0.1,0.2-0.1c0.1-0.1,0.2-0.2,0.3-0.2c0,0,0.1,0,0.1-0.1l71.8-63.4
		c0.1,0,0.1-0.1,0.1-0.1c0.1-0.1,0.2-0.2,0.2-0.3C295.5,333.9,295.6,333.8,295.7,333.8z"/>
	<g>
		<g>
			<polygon class="st5" points="213.7,288.6 186.4,322.2 241,322.2 			"/>
		</g>
		<polygon class="st5" points="186.4,321.8 149.9,321.8 168.2,295.1 		"/>
		<polygon class="st5" points="277.5,322.2 241,322.2 259.2,295.5 		"/>
		<polygon class="st13" points="168.2,295.9 213.7,289 186.4,320.7 		"/>
		<polygon class="st13" points="259.2,296.6 213.7,289.8 241,320.7 		"/>
		<polygon class="st13" points="241,325.2 213.7,397.3 186.4,325.2 		"/>
		<polygon class="st5" points="277.5,323.7 213.7,395.8 241,323.7 		"/>
		<g>
			<polygon class="st14" points="149.9,326.7 213.7,398.8 186.4,326.7 			"/>
			<path class="st4" d="M281.4,328.2c0-0.1,0.1-0.1,0.1-0.2c0,0,0-0.1,0-0.1c0-0.1,0.1-0.2,0.1-0.3c0-0.1,0.1-0.2,0.1-0.3
				c0-0.1,0.1-0.2,0.1-0.3c0-0.1,0.1-0.2,0.1-0.3c0-0.1,0-0.2,0-0.3c0-0.1,0-0.2,0-0.3c0-0.1,0-0.2,0-0.3c0-0.1,0-0.2,0-0.3
				c0-0.1,0-0.2,0-0.3c0-0.1,0-0.2-0.1-0.3c0-0.1,0-0.2-0.1-0.3c0-0.1-0.1-0.2-0.1-0.3c0-0.1,0-0.1-0.1-0.2c0,0,0,0,0-0.1
				c-0.1-0.1-0.1-0.2-0.2-0.3c0-0.1-0.1-0.2-0.1-0.3c0,0,0,0,0-0.1L263,296.6c0,0-0.1-0.1-0.1-0.1c-0.1-0.1-0.1-0.2-0.2-0.2
				c-0.1-0.1-0.1-0.1-0.2-0.2c-0.1-0.1-0.1-0.1-0.2-0.2c-0.1-0.1-0.1-0.1-0.2-0.2c-0.1-0.1-0.1-0.1-0.2-0.2
				c-0.1-0.1-0.2-0.1-0.2-0.2c-0.1,0-0.1-0.1-0.2-0.1c-0.1,0-0.2-0.1-0.3-0.1c-0.1,0-0.2-0.1-0.2-0.1c-0.1,0-0.2-0.1-0.3-0.1
				c-0.1,0-0.2-0.1-0.2-0.1c-0.1,0-0.2,0-0.3-0.1c-0.1,0-0.1,0-0.2,0l-45.5-6.8c0,0,0,0,0,0l0,0c0,0-0.1,0-0.1,0c-0.2,0-0.4,0-0.6,0
				c-0.1,0-0.2,0-0.3,0c-0.1,0-0.2,0-0.4,0l-45.5,6.9c-0.1,0-0.1,0-0.2,0c-0.1,0-0.2,0-0.3,0.1c-0.1,0-0.2,0.1-0.3,0.1
				c-0.1,0-0.2,0.1-0.3,0.1c-0.1,0-0.2,0.1-0.3,0.1c-0.1,0-0.2,0.1-0.3,0.1c-0.1,0-0.2,0.1-0.2,0.1c-0.1,0.1-0.2,0.1-0.2,0.2
				c-0.1,0.1-0.1,0.1-0.2,0.2c-0.1,0.1-0.1,0.1-0.2,0.2c-0.1,0.1-0.1,0.1-0.2,0.2c-0.1,0.1-0.1,0.1-0.2,0.2
				c-0.1,0.1-0.1,0.1-0.2,0.2c0,0-0.1,0.1-0.1,0.1l-18.3,26.7c0,0,0,0,0,0.1c-0.1,0.1-0.1,0.2-0.1,0.2c-0.1,0.1-0.1,0.2-0.2,0.3
				c0,0,0,0,0,0.1c0,0.1,0,0.1-0.1,0.2c0,0.1-0.1,0.2-0.1,0.3c0,0.1-0.1,0.2-0.1,0.3c0,0.1-0.1,0.2-0.1,0.3c0,0.1,0,0.2,0,0.3
				c0,0.1,0,0.2,0,0.3c0,0.1,0,0.2,0,0.3c0,0.1,0,0.2,0,0.3c0,0.1,0,0.2,0,0.3c0,0.1,0,0.2,0.1,0.3c0,0.1,0,0.2,0.1,0.3
				c0,0.1,0.1,0.2,0.1,0.3c0,0.1,0.1,0.2,0.1,0.3c0,0,0,0.1,0,0.1c0,0.1,0.1,0.1,0.1,0.2c0.1,0.1,0.1,0.2,0.2,0.3
				c0.1,0.1,0.1,0.2,0.2,0.3c0,0.1,0.1,0.1,0.1,0.2l63.8,72.1c0,0,0.1,0.1,0.1,0.1c0.1,0.1,0.2,0.2,0.3,0.3c0.1,0.1,0.1,0.1,0.2,0.2
				c0,0,0.1,0.1,0.1,0.1c0,0,0.1,0.1,0.1,0.1c0.1,0,0.1,0.1,0.2,0.1c0,0,0.1,0,0.1,0.1c0.1,0,0.1,0.1,0.2,0.1c0.1,0,0.2,0.1,0.3,0.1
				c0,0,0.1,0,0.1,0c0.1,0,0.2,0.1,0.3,0.1c0.1,0,0.2,0.1,0.3,0.1c0.1,0,0.2,0,0.3,0.1c0.1,0,0.1,0,0.2,0c0.1,0,0.1,0,0.2,0
				c0.2,0,0.4,0.1,0.7,0.1c0,0,0,0,0,0c0,0,0,0,0,0c0,0,0,0,0,0c0,0,0,0,0,0c0.2,0,0.4,0,0.7-0.1c0.1,0,0.1,0,0.2,0
				c0.1,0,0.1,0,0.2,0c0.1,0,0.2,0,0.3-0.1c0.1,0,0.2-0.1,0.2-0.1c0.1,0,0.2-0.1,0.3-0.1c0,0,0.1,0,0.1,0c0.1,0,0.2-0.1,0.3-0.1
				c0.1,0,0.1-0.1,0.2-0.1c0,0,0.1,0,0.1-0.1c0.1,0,0.1-0.1,0.2-0.1c0,0,0.1-0.1,0.1-0.1c0,0,0.1,0,0.1-0.1c0.1-0.1,0.1-0.1,0.2-0.2
				c0.1-0.1,0.2-0.2,0.3-0.3c0,0,0.1-0.1,0.1-0.1l63.8-72.1c0-0.1,0.1-0.1,0.1-0.2c0.1-0.1,0.2-0.2,0.2-0.3
				C281.3,328.4,281.4,328.3,281.4,328.2z M213.7,299.6l17.6,21.6h-35.2L213.7,299.6z M213.7,385l-6-15.9l-14.6-38.6h41.2l-9.2,24.3
				L213.7,385z M256.4,311.4l2.8-4.1l9.5,13.9h-19.1L256.4,311.4z M251.3,302.7l-10.1,14.7l-0.6,0.8l-15.9-19.5L251.3,302.7z
				 M202.6,298.7l-15.9,19.5l-10.6-15.5L202.6,298.7z M168.2,307.3l9.5,13.9h-19.1L168.2,307.3z M183.3,330.5l17.3,45.7l-40.4-45.7
				H183.3z M226.9,376.1l17.3-45.7h23.1L226.9,376.1z"/>
		</g>
	</g>
</g>
</svg>
