<?xml version="1.0" encoding="utf-8"?>
<!-- Generator: Adobe Illustrator 19.2.0, SVG Export Plug-In . SVG Version: 6.00 Build 0)  -->
<svg version="1.1" id="Layer_1" xmlns="http://www.w3.org/2000/svg" xmlns:xlink="http://www.w3.org/1999/xlink" x="0px" y="0px"
	 viewBox="0 0 763.9 476.9" style="enable-background:new 0 0 763.9 476.9;" xml:space="preserve">
<style type="text/css">
	.st0{fill:#E2E5ED;}
	.st1{fill:#F5F4EA;}
	.st2{fill:#FFFFFF;}
	.st3{fill:#E5E0C8;}
	.st4{fill:none;stroke:#232A40;stroke-width:4;stroke-linecap:round;stroke-linejoin:round;stroke-miterlimit:10;}
	.st5{fill:#222A3F;}
	.st6{fill:#D3CCAF;}
	.st7{fill:#F0BF55;}
	.st8{opacity:0.1;}
	.st9{fill:#232A40;}
</style>
<g>
	<ellipse class="st0" cx="413.7" cy="399.8" rx="261.5" ry="12"/>
	<g>
		<path class="st1" d="M638.7,184.6v-16.2c0-2.4-2-4.4-4.4-4.4H304.1c-2.4,0-4.4,2-4.4,4.4v223.9c0,2.4,2,4.4,4.4,4.4h330.2
			c2.4,0,4.4-2,4.4-4.4V186.9V184.6L638.7,184.6z"/>
		<g>
			<path class="st2" d="M638.7,184.6v-16.2c0-2.4-1.7-4.4-3.7-4.4h-24.7c1.9,0,3.4,2,3.4,4.4v16.2h0l0,2.3v205.5
				c0,2.4-1.5,4.4-3.4,4.4h-253l0,0H635c2.1,0,3.7-2,3.7-4.4V186.9V184.6L638.7,184.6z"/>
			<polygon class="st3" points="299.7,392.4 299.7,168.5 299.7,168.5 299.7,168.5 299.7,392.4 299.7,392.4 			"/>
		</g>
		<g>
			<path class="st4" d="M638.7,184.6L638.7,184.6l0-16.2c0-2.4-2-4.4-4.4-4.4H304.1c-2.4,0-4.4,2-4.4,4.4v223.9c0,2.4,2,4.4,4.4,4.4
				h330.2c2.4,0,4.4-2,4.4-4.4V186.9L638.7,184.6z M304.1,167.3h330.2c0.6,0,1.2,0.5,1.2,1.2v16.2l-332.5,0v-16.1
				C302.9,167.8,303.4,167.3,304.1,167.3z M634.3,393.5H304.1c-0.6,0-1.2-0.5-1.2-1.2V187.9l332.5,0v204.5
				C635.4,393,634.9,393.5,634.3,393.5z"/>
			<circle class="st5" cx="311.9" cy="176.6" r="2.5"/>
			<circle class="st5" cx="321.7" cy="176.6" r="2.5"/>
			<circle class="st5" cx="331.5" cy="176.6" r="2.5"/>
		</g>
		<g>
			<g>
				<g>
					<g>
						<path class="st3" d="M415.6,287.2h-80.4c-0.7,0-1.3-0.6-1.3-1.3v-52.7c0-0.7,0.6-1.3,1.3-1.3h80.1c0.9,0,1.6,0.7,1.6,1.6v52.4
							C416.9,286.6,416.3,287.2,415.6,287.2z"/>
					</g>
					<g>
						<path class="st2" d="M400.8,273.6l-16.4-21.8c-1-1.3-2.8-1.3-3.8,0l-8.2,11c-0.8,1.1-2.4,1.3-3.4,0.4l-3.3-2.8
							c-1-0.8-2.3-0.7-3.2,0.2l-12.3,12.7c-1.6,1.6-0.5,4.5,1.7,4.5h47.1C401,277.8,402.1,275.3,400.8,273.6z"/>
						<ellipse class="st2" cx="357.2" cy="250.8" rx="4.7" ry="5"/>
					</g>
				</g>
				<path class="st6" d="M385.9,299.1h-51.2c-0.5,0-0.9-0.4-0.9-0.9v-5.7c0-0.5,0.4-0.9,0.9-0.9h51.2c0.5,0,0.9,0.4,0.9,0.9v5.7
					C386.8,298.7,386.4,299.1,385.9,299.1z"/>
				<path class="st7" d="M416.3,304.7h-12.5c-0.3,0-0.6-0.3-0.6-0.6v-12c0-0.3,0.3-0.6,0.6-0.6h12.5c0.3,0,0.6,0.3,0.6,0.6v12
					C416.9,304.4,416.6,304.7,416.3,304.7z"/>
				<path class="st3" d="M373.6,306.3h-39.4c-0.2,0-0.3-0.1-0.3-0.3v-2.8c0-0.2,0.1-0.3,0.3-0.3h39.4c0.2,0,0.3,0.1,0.3,0.3v2.8
					C374,306.1,373.8,306.3,373.6,306.3z"/>
				<g>
					<path class="st2" d="M407.8,300.2c0.2-0.3,0.4-0.9,0.7-0.7c0,0,0.6,0.5,1.2,0.6c0-0.6,0-1.2,0-1.9c-0.9-0.4-1.9-0.9-1.9-2.2
						c0-0.9,0.6-1.7,1.9-1.8V294c0-0.1,0.1-0.2,0.2-0.2h0.1c0.1,0,0.2,0.1,0.2,0.2v0.3c0.9,0.1,1.5,0.5,1.7,0.6
						c0.1,0.1,0.1,0.2,0.1,0.3c-0.2,0.3-0.5,0.8-0.7,0.7c-0.1,0-0.6-0.4-1.1-0.5c0,0.6,0,1.2,0,1.8c0.8,0.4,2,0.9,2,2.2
						c0,1.1-0.7,1.8-2,1.9v1c0,0.1-0.1,0.2-0.2,0.2c-0.1,0-0.3,0-0.3-0.2v-1c-1.1-0.1-1.7-0.6-1.8-0.7
						C407.8,300.4,407.7,300.4,407.8,300.2z M409.7,295.3c-0.5,0.1-0.7,0.3-0.7,0.6c0,0.4,0.2,0.7,0.7,0.9V295.3z M411,299.5
						c0-0.4-0.2-0.7-0.7-1v1.7C410.7,300.1,411,299.8,411,299.5z"/>
				</g>
			</g>
			<g>
				<g>
					<g>
						<path class="st3" d="M509.4,287.2H429c-0.7,0-1.3-0.6-1.3-1.3v-52.7c0-0.7,0.6-1.3,1.3-1.3h80.1c0.9,0,1.6,0.7,1.6,1.6v52.4
							C510.7,286.6,510.1,287.2,509.4,287.2z"/>
					</g>
					<g>
						<path class="st2" d="M494.6,273.6l-16.4-21.8c-1-1.3-2.8-1.3-3.8,0l-8.2,11c-0.8,1.1-2.4,1.3-3.4,0.4l-3.3-2.8
							c-1-0.8-2.3-0.7-3.2,0.2L444,273.3c-1.6,1.6-0.5,4.5,1.7,4.5h47.1C494.8,277.8,495.9,275.3,494.6,273.6z"/>
						<ellipse class="st2" cx="451" cy="250.8" rx="4.7" ry="5"/>
					</g>
				</g>
				<path class="st6" d="M479.7,299.1h-51.2c-0.5,0-0.9-0.4-0.9-0.9v-5.7c0-0.5,0.4-0.9,0.9-0.9h51.2c0.5,0,0.9,0.4,0.9,0.9v5.7
					C480.6,298.7,480.2,299.1,479.7,299.1z"/>
				<path class="st7" d="M510.1,304.7h-12.5c-0.3,0-0.6-0.3-0.6-0.6v-12c0-0.3,0.3-0.6,0.6-0.6h12.5c0.3,0,0.6,0.3,0.6,0.6v12
					C510.7,304.4,510.4,304.7,510.1,304.7z"/>
				<path class="st3" d="M467.5,306.3h-39.4c-0.2,0-0.3-0.1-0.3-0.3v-2.8c0-0.2,0.1-0.3,0.3-0.3h39.4c0.2,0,0.3,0.1,0.3,0.3v2.8
					C467.8,306.1,467.6,306.3,467.5,306.3z"/>
				<g>
					<path class="st2" d="M501.6,300.2c0.2-0.3,0.4-0.9,0.7-0.7c0,0,0.6,0.5,1.2,0.6c0-0.6,0-1.2,0-1.9c-0.9-0.4-1.9-0.9-1.9-2.2
						c0-0.9,0.6-1.7,1.9-1.8V294c0-0.1,0.1-0.2,0.2-0.2h0.1c0.1,0,0.2,0.1,0.2,0.2v0.3c0.9,0.1,1.5,0.5,1.7,0.6
						c0.1,0.1,0.1,0.2,0.1,0.3c-0.2,0.3-0.5,0.8-0.7,0.7c-0.1,0-0.6-0.4-1.1-0.5c0,0.6,0,1.2,0,1.8c0.8,0.4,2,0.9,2,2.2
						c0,1.1-0.7,1.8-2,1.9v1c0,0.1-0.1,0.2-0.2,0.2c-0.1,0-0.3,0-0.3-0.2v-1c-1.1-0.1-1.7-0.6-1.8-0.7
						C501.6,300.4,501.5,300.4,501.6,300.2z M503.5,295.3c-0.5,0.1-0.7,0.3-0.7,0.6c0,0.4,0.2,0.7,0.7,0.9V295.3z M504.8,299.5
						c0-0.4-0.2-0.7-0.7-1v1.7C504.5,300.1,504.8,299.8,504.8,299.5z"/>
				</g>
			</g>
			<g>
				<g>
					<g>
						<path class="st3" d="M603.2,287.2h-80.4c-0.7,0-1.3-0.6-1.3-1.3v-52.7c0-0.7,0.6-1.3,1.3-1.3h80.1c0.9,0,1.6,0.7,1.6,1.6v52.4
							C604.5,286.6,603.9,287.2,603.2,287.2z"/>
					</g>
					<g>
						<path class="st2" d="M588.4,273.6l-16.4-21.8c-1-1.3-2.8-1.3-3.8,0l-8.2,11c-0.8,1.1-2.4,1.3-3.4,0.4l-3.3-2.8
							c-1-0.8-2.3-0.7-3.2,0.2l-12.3,12.7c-1.6,1.6-0.5,4.5,1.7,4.5h47.1C588.6,277.8,589.7,275.3,588.4,273.6z"/>
						<ellipse class="st2" cx="544.8" cy="250.8" rx="4.7" ry="5"/>
					</g>
				</g>
				<path class="st6" d="M573.5,299.1h-51.2c-0.5,0-0.9-0.4-0.9-0.9v-5.7c0-0.5,0.4-0.9,0.9-0.9h51.2c0.5,0,0.9,0.4,0.9,0.9v5.7
					C574.4,298.7,574,299.1,573.5,299.1z"/>
				<path class="st7" d="M603.9,304.7h-12.5c-0.3,0-0.6-0.3-0.6-0.6v-12c0-0.3,0.3-0.6,0.6-0.6h12.5c0.3,0,0.6,0.3,0.6,0.6v12
					C604.5,304.4,604.2,304.7,603.9,304.7z"/>
				<path class="st3" d="M561.3,306.3h-39.4c-0.2,0-0.3-0.1-0.3-0.3v-2.8c0-0.2,0.1-0.3,0.3-0.3h39.4c0.2,0,0.3,0.1,0.3,0.3v2.8
					C561.6,306.1,561.4,306.3,561.3,306.3z"/>
				<g>
					<path class="st2" d="M595.5,300.2c0.2-0.3,0.4-0.9,0.7-0.7c0,0,0.6,0.5,1.2,0.6c0-0.6,0-1.2,0-1.9c-0.9-0.4-1.9-0.9-1.9-2.2
						c0-0.9,0.6-1.7,1.9-1.8V294c0-0.1,0.1-0.2,0.2-0.2h0.1c0.1,0,0.2,0.1,0.2,0.2v0.3c0.9,0.1,1.5,0.5,1.7,0.6
						c0.1,0.1,0.1,0.2,0.1,0.3c-0.2,0.3-0.5,0.8-0.7,0.7c-0.1,0-0.6-0.4-1.1-0.5c0,0.6,0,1.2,0,1.8c0.8,0.4,2,0.9,2,2.2
						c0,1.1-0.7,1.8-2,1.9v1c0,0.1-0.1,0.2-0.2,0.2c-0.1,0-0.3,0-0.3-0.2v-1c-1.1-0.1-1.7-0.6-1.8-0.7
						C595.4,300.4,595.4,300.4,595.5,300.2z M597.3,295.3c-0.5,0.1-0.7,0.3-0.7,0.6c0,0.4,0.2,0.7,0.7,0.9V295.3z M598.6,299.5
						c0-0.4-0.2-0.7-0.7-1v1.7C598.3,300.1,598.6,299.8,598.6,299.5z"/>
				</g>
			</g>
		</g>
		<g>
			<g>
				<g>
					<g>
						<path class="st3" d="M415.6,374.1h-80.4c-0.7,0-1.3-0.6-1.3-1.3v-52.7c0-0.7,0.6-1.3,1.3-1.3h80.1c0.9,0,1.6,0.7,1.6,1.6v52.4
							C416.9,373.5,416.3,374.1,415.6,374.1z"/>
					</g>
					<g>
						<path class="st2" d="M400.8,360.5l-16.4-21.8c-1-1.3-2.8-1.3-3.8,0l-8.2,11c-0.8,1.1-2.4,1.3-3.4,0.4l-3.3-2.8
							c-1-0.8-2.3-0.7-3.2,0.2l-12.3,12.7c-1.6,1.6-0.5,4.5,1.7,4.5h47.1C401,364.8,402.1,362.2,400.8,360.5z"/>
						<ellipse class="st2" cx="357.2" cy="337.7" rx="4.7" ry="5"/>
					</g>
				</g>
				<path class="st6" d="M385.9,386h-51.2c-0.5,0-0.9-0.4-0.9-0.9v-5.7c0-0.5,0.4-0.9,0.9-0.9h51.2c0.5,0,0.9,0.4,0.9,0.9v5.7
					C386.8,385.6,386.4,386,385.9,386z"/>
				<path class="st7" d="M416.3,391.6h-12.5c-0.3,0-0.6-0.3-0.6-0.6v-12c0-0.3,0.3-0.6,0.6-0.6h12.5c0.3,0,0.6,0.3,0.6,0.6v12
					C416.9,391.3,416.6,391.6,416.3,391.6z"/>
				<g>
					<path class="st2" d="M407.8,387.1c0.2-0.3,0.4-0.9,0.7-0.7c0,0,0.6,0.5,1.2,0.6c0-0.6,0-1.2,0-1.9c-0.9-0.4-1.9-0.9-1.9-2.2
						c0-0.9,0.6-1.7,1.9-1.8v-0.3c0-0.1,0.1-0.2,0.2-0.2h0.1c0.1,0,0.2,0.1,0.2,0.2v0.3c0.9,0.1,1.5,0.5,1.7,0.6
						c0.1,0.1,0.1,0.2,0.1,0.3c-0.2,0.3-0.5,0.8-0.7,0.7c-0.1,0-0.6-0.4-1.1-0.5c0,0.6,0,1.2,0,1.8c0.8,0.4,2,0.9,2,2.2
						c0,1.1-0.7,1.8-2,1.9v1c0,0.1-0.1,0.2-0.2,0.2c-0.1,0-0.3,0-0.3-0.2v-1c-1.1-0.1-1.7-0.6-1.8-0.7
						C407.8,387.3,407.7,387.3,407.8,387.1z M409.7,382.3c-0.5,0.1-0.7,0.3-0.7,0.6c0,0.4,0.2,0.7,0.7,0.9V382.3z M411,386.4
						c0-0.4-0.2-0.7-0.7-1v1.7C410.7,387.1,411,386.8,411,386.4z"/>
				</g>
			</g>
			<g>
				<g>
					<g>
						<path class="st3" d="M509.4,374.1H429c-0.7,0-1.3-0.6-1.3-1.3v-52.7c0-0.7,0.6-1.3,1.3-1.3h80.1c0.9,0,1.6,0.7,1.6,1.6v52.4
							C510.7,373.5,510.1,374.1,509.4,374.1z"/>
					</g>
					<g>
						<path class="st2" d="M494.6,360.5l-16.4-21.8c-1-1.3-2.8-1.3-3.8,0l-8.2,11c-0.8,1.1-2.4,1.3-3.4,0.4l-3.3-2.8
							c-1-0.8-2.3-0.7-3.2,0.2L444,360.2c-1.6,1.6-0.5,4.5,1.7,4.5h47.1C494.8,364.8,495.9,362.2,494.6,360.5z"/>
						<ellipse class="st2" cx="451" cy="337.7" rx="4.7" ry="5"/>
					</g>
				</g>
				<path class="st6" d="M479.7,386h-51.2c-0.5,0-0.9-0.4-0.9-0.9v-5.7c0-0.5,0.4-0.9,0.9-0.9h51.2c0.5,0,0.9,0.4,0.9,0.9v5.7
					C480.6,385.6,480.2,386,479.7,386z"/>
				<path class="st7" d="M510.1,391.6h-12.5c-0.3,0-0.6-0.3-0.6-0.6v-12c0-0.3,0.3-0.6,0.6-0.6h12.5c0.3,0,0.6,0.3,0.6,0.6v12
					C510.7,391.3,510.4,391.6,510.1,391.6z"/>
				<g>
					<path class="st2" d="M501.6,387.1c0.2-0.3,0.4-0.9,0.7-0.7c0,0,0.6,0.5,1.2,0.6c0-0.6,0-1.2,0-1.9c-0.9-0.4-1.9-0.9-1.9-2.2
						c0-0.9,0.6-1.7,1.9-1.8v-0.3c0-0.1,0.1-0.2,0.2-0.2h0.1c0.1,0,0.2,0.1,0.2,0.2v0.3c0.9,0.1,1.5,0.5,1.7,0.6
						c0.1,0.1,0.1,0.2,0.1,0.3c-0.2,0.3-0.5,0.8-0.7,0.7c-0.1,0-0.6-0.4-1.1-0.5c0,0.6,0,1.2,0,1.8c0.8,0.4,2,0.9,2,2.2
						c0,1.1-0.7,1.8-2,1.9v1c0,0.1-0.1,0.2-0.2,0.2c-0.1,0-0.3,0-0.3-0.2v-1c-1.1-0.1-1.7-0.6-1.8-0.7
						C501.6,387.3,501.5,387.3,501.6,387.1z M503.5,382.3c-0.5,0.1-0.7,0.3-0.7,0.6c0,0.4,0.2,0.7,0.7,0.9V382.3z M504.8,386.4
						c0-0.4-0.2-0.7-0.7-1v1.7C504.5,387.1,504.8,386.8,504.8,386.4z"/>
				</g>
			</g>
			<g>
				<g>
					<g>
						<path class="st3" d="M603.2,374.1h-80.4c-0.7,0-1.3-0.6-1.3-1.3v-52.7c0-0.7,0.6-1.3,1.3-1.3h80.1c0.9,0,1.6,0.7,1.6,1.6v52.4
							C604.5,373.5,603.9,374.1,603.2,374.1z"/>
					</g>
					<g>
						<path class="st2" d="M588.4,360.5l-16.4-21.8c-1-1.3-2.8-1.3-3.8,0l-8.2,11c-0.8,1.1-2.4,1.3-3.4,0.4l-3.3-2.8
							c-1-0.8-2.3-0.7-3.2,0.2l-12.3,12.7c-1.6,1.6-0.5,4.5,1.7,4.5h47.1C588.6,364.8,589.7,362.2,588.4,360.5z"/>
						<ellipse class="st2" cx="544.8" cy="337.7" rx="4.7" ry="5"/>
					</g>
				</g>
				<path class="st6" d="M573.5,386h-51.2c-0.5,0-0.9-0.4-0.9-0.9v-5.7c0-0.5,0.4-0.9,0.9-0.9h51.2c0.5,0,0.9,0.4,0.9,0.9v5.7
					C574.4,385.6,574,386,573.5,386z"/>
				<path class="st7" d="M603.9,391.6h-12.5c-0.3,0-0.6-0.3-0.6-0.6v-12c0-0.3,0.3-0.6,0.6-0.6h12.5c0.3,0,0.6,0.3,0.6,0.6v12
					C604.5,391.3,604.2,391.6,603.9,391.6z"/>
				<g>
					<path class="st2" d="M595.5,387.1c0.2-0.3,0.4-0.9,0.7-0.7c0,0,0.6,0.5,1.2,0.6c0-0.6,0-1.2,0-1.9c-0.9-0.4-1.9-0.9-1.9-2.2
						c0-0.9,0.6-1.7,1.9-1.8v-0.3c0-0.1,0.1-0.2,0.2-0.2h0.1c0.1,0,0.2,0.1,0.2,0.2v0.3c0.9,0.1,1.5,0.5,1.7,0.6
						c0.1,0.1,0.1,0.2,0.1,0.3c-0.2,0.3-0.5,0.8-0.7,0.7c-0.1,0-0.6-0.4-1.1-0.5c0,0.6,0,1.2,0,1.8c0.8,0.4,2,0.9,2,2.2
						c0,1.1-0.7,1.8-2,1.9v1c0,0.1-0.1,0.2-0.2,0.2c-0.1,0-0.3,0-0.3-0.2v-1c-1.1-0.1-1.7-0.6-1.8-0.7
						C595.4,387.3,595.4,387.3,595.5,387.1z M597.3,382.3c-0.5,0.1-0.7,0.3-0.7,0.6c0,0.4,0.2,0.7,0.7,0.9V382.3z M598.6,386.4
						c0-0.4-0.2-0.7-0.7-1v1.7C598.3,387.1,598.6,386.8,598.6,386.4z"/>
				</g>
			</g>
		</g>
		<g>
			<path class="st7" d="M621.8,206.5h-12.3c-0.4,0-0.7-0.3-0.7-0.7v-4c0-0.4,0.3-0.7,0.7-0.7h12.3c0.4,0,0.7,0.3,0.7,0.7v4
				C622.5,206.2,622.2,206.5,621.8,206.5z"/>
			<path class="st7" d="M598.3,206.5H586c-0.4,0-0.7-0.3-0.7-0.7v-4c0-0.4,0.3-0.7,0.7-0.7h12.3c0.4,0,0.7,0.3,0.7,0.7v4
				C599,206.2,598.7,206.5,598.3,206.5z"/>
			<path class="st7" d="M574.8,206.5h-12.3c-0.4,0-0.7-0.3-0.7-0.7v-4c0-0.4,0.3-0.7,0.7-0.7h12.3c0.4,0,0.7,0.3,0.7,0.7v4
				C575.4,206.2,575.1,206.5,574.8,206.5z"/>
			<path class="st7" d="M551.2,206.5H539c-0.4,0-0.7-0.3-0.7-0.7v-4c0-0.4,0.3-0.7,0.7-0.7h12.3c0.4,0,0.7,0.3,0.7,0.7v4
				C551.9,206.2,551.6,206.5,551.2,206.5z"/>
			<circle class="st7" cx="321.1" cy="203.9" r="8"/>
		</g>
	</g>
	<path class="st8" d="M317,169.1l230.5,0l0,195.6c0,7.8-6.3,14.1-14.1,14.1l-230.5,0l0-195.6C302.9,175.4,309.2,169.1,317,169.1z"/>
	<path class="st7" d="M371.6,68.9l182.4,0v-3.8l-182.4,0c-6.1,0-11,4.9-11,11v9.8c-5.3,0.9-9.3,5.4-9.4,10.8
		c-0.2,6.2,4.9,11.5,11.1,11.7c6.4,0.1,11.5-5,11.5-11.3c0-5.6-4.1-10.3-9.4-11.2v-9.8C364.3,72.1,367.5,68.9,371.6,68.9z"/>
	<path class="st7" d="M110.3,240.7l0-47.6h-4.1l0,47.6c0,6.8,5.5,12.3,12.3,12.3h32.2l0,9.7c0,1.6,1.7,2.6,3.1,1.8l10.1-5.8
		l10.1-5.8c1.4-0.8,1.4-2.8,0-3.6l-10.1-5.8l-10.1-5.8c-1.4-0.8-3.1,0.2-3.1,1.8l0,9.7l-32.2,0C114,248.9,110.3,245.2,110.3,240.7z"
		/>
	<path class="st7" d="M572.3,68.9l-44,0v-3.8l44,0c6.3,0,11.3,5.1,11.3,11.3l0,51.6l8.9,0c1.5,0,2.4,1.6,1.7,2.9l-5.4,9.4l-5.4,9.4
		c-0.7,1.3-2.6,1.3-3.3,0l-5.4-9.4l-5.4-9.4c-0.7-1.3,0.2-2.9,1.7-2.9l8.9,0l0-51.6C579.9,72.3,576.5,68.9,572.3,68.9z"/>
	<path class="st7" d="M108.8,122.2c-11.1,0-20.1,9-20.1,20.1c0,19.9,17.9,43.3,20.1,43.3c2.2,0,20.1-23.9,20.1-43.3
		C128.8,131.2,119.9,122.2,108.8,122.2z M108.8,154.4c-5.1,0-9.3-4.1-9.3-9.3c0-5.1,4.1-9.3,9.3-9.3c5.1,0,9.3,4.1,9.3,9.3
		C118,150.3,113.9,154.4,108.8,154.4z"/>
	<g>
		<path class="st1" d="M531.4,144.1V128c0-2.4-2-4.4-4.4-4.4H196.8c-2.4,0-4.4,2-4.4,4.4v223.9c0,2.4,2,4.4,4.4,4.4H527
			c2.4,0,4.4-2,4.4-4.4V146.4V144.1L531.4,144.1z"/>
		<g>
			<path class="st2" d="M531.4,144.1V128c0-2.4-1.7-4.4-3.7-4.4H503c1.9,0,3.4,2,3.4,4.4v16.2h0l0,2.3v205.5c0,2.4-1.5,4.4-3.4,4.4
				h-253c0,0,0,0,0,0h277.8c2.1,0,3.7-2,3.7-4.4V146.4V144.1L531.4,144.1z"/>
			<polygon class="st3" points="192.4,351.9 192.4,128 192.4,128 192.4,128 192.4,351.9 192.4,351.9 			"/>
		</g>
		<g>
			<path class="st4" d="M531.4,144.1L531.4,144.1l0-16.2c0-2.4-2-4.4-4.4-4.4H196.8c-2.4,0-4.4,2-4.4,4.4v223.9c0,2.4,2,4.4,4.4,4.4
				H527c2.4,0,4.4-2,4.4-4.4V146.4L531.4,144.1z M196.8,126.8H527c0.6,0,1.2,0.5,1.2,1.2v16.2l-332.5,0V128
				C195.6,127.3,196.2,126.8,196.8,126.8z M527,353.1H196.8c-0.6,0-1.2-0.5-1.2-1.2V147.4l332.5,0v204.5
				C528.2,352.5,527.6,353.1,527,353.1z"/>
			<circle class="st5" cx="204.6" cy="136.1" r="2.5"/>
			<circle class="st5" cx="214.4" cy="136.1" r="2.5"/>
			<circle class="st5" cx="224.2" cy="136.1" r="2.5"/>
		</g>
		<g>
			<path class="st7" d="M514.6,166h-12.3c-0.4,0-0.7-0.3-0.7-0.7v-4c0-0.4,0.3-0.7,0.7-0.7h12.3c0.4,0,0.7,0.3,0.7,0.7v4
				C515.2,165.8,514.9,166,514.6,166z"/>
			<path class="st7" d="M491,166h-12.3c-0.4,0-0.7-0.3-0.7-0.7v-4c0-0.4,0.3-0.7,0.7-0.7H491c0.4,0,0.7,0.3,0.7,0.7v4
				C491.7,165.8,491.4,166,491,166z"/>
			<path class="st7" d="M467.5,166h-12.3c-0.4,0-0.7-0.3-0.7-0.7v-4c0-0.4,0.3-0.7,0.7-0.7h12.3c0.4,0,0.7,0.3,0.7,0.7v4
				C468.2,165.8,467.9,166,467.5,166z"/>
			<path class="st7" d="M444,166h-12.3c-0.4,0-0.7-0.3-0.7-0.7v-4c0-0.4,0.3-0.7,0.7-0.7H444c0.4,0,0.7,0.3,0.7,0.7v4
				C444.6,165.8,444.3,166,444,166z"/>
			<circle class="st7" cx="213.8" cy="163.4" r="8"/>
		</g>
		<g>
			<path class="st3" d="M485.3,304.7l-78.9-98c-4.7-5.9-13.7-5.9-18.4,0l-39.5,49.4c-4,5.1-11.4,5.9-16.5,1.9l-16-12.5
				c-4.6-3.6-11.2-3.3-15.5,0.8l-59.3,57.2c-7.6,7.4-2.4,20.3,8.2,20.3h226.6C486,323.9,491.5,312.4,485.3,304.7z"/>
			<circle class="st3" cx="275.2" cy="202.3" r="22.6"/>
		</g>
		<path class="st9" d="M440.8,243.6H284.7c-0.9,0-1.6-0.7-1.6-1.6v-8.1c0-0.9,0.7-1.6,1.6-1.6h156.1c0.9,0,1.6,0.7,1.6,1.6v8.1
			C442.4,242.9,441.7,243.6,440.8,243.6z"/>
		<path class="st2" d="M425,254.1H300.5c-0.4,0-0.7-0.3-0.7-0.7v-4.2c0-0.4,0.3-0.7,0.7-0.7H425c0.4,0,0.7,0.3,0.7,0.7v4.2
			C425.6,253.8,425.3,254.1,425,254.1z"/>
		<path class="st2" d="M415.8,263.8H309.7c-0.4,0-0.7-0.3-0.7-0.7v-4.2c0-0.4,0.3-0.7,0.7-0.7h106.2c0.4,0,0.7,0.3,0.7,0.7v4.2
			C416.5,263.5,416.2,263.8,415.8,263.8z"/>
		<g>
			<path class="st9" d="M347,286.2h-18c-0.3,0-0.6-0.3-0.6-0.6v-1.9c0-0.3,0.3-0.6,0.6-0.6h18c0.3,0,0.6,0.3,0.6,0.6v1.9
				C347.6,286,347.4,286.2,347,286.2z"/>
			<path class="st9" d="M357.6,280.1v9.2h-39.1v-9.2H357.6 M358,278.4h-40c-0.7,0-1.3,0.6-1.3,1.3v10.1c0,0.7,0.6,1.3,1.3,1.3h40
				c0.7,0,1.3-0.6,1.3-1.3v-10.1C359.3,278.9,358.7,278.4,358,278.4L358,278.4z"/>
			<g>
				<path class="st7" d="M407.5,291h-40c-0.7,0-1.3-0.6-1.3-1.3v-10.1c0-0.7,0.6-1.3,1.3-1.3h40c0.7,0,1.3,0.6,1.3,1.3v10.1
					C408.7,290.4,408.2,291,407.5,291z"/>
				<path class="st2" d="M396.5,286.2h-18c-0.3,0-0.6-0.3-0.6-0.6v-1.9c0-0.3,0.3-0.6,0.6-0.6h18c0.3,0,0.6,0.3,0.6,0.6v1.9
					C397.1,286,396.8,286.2,396.5,286.2z"/>
			</g>
		</g>
	</g>
</g>
</svg>
