<?xml version="1.0" encoding="utf-8"?>
<!-- Generator: Adobe Illustrator 19.2.0, SVG Export Plug-In . SVG Version: 6.00 Build 0)  -->
<svg version="1.1" id="Layer_1" xmlns="http://www.w3.org/2000/svg" xmlns:xlink="http://www.w3.org/1999/xlink" x="0px" y="0px"
	 viewBox="0 0 763.9 476.9" style="enable-background:new 0 0 763.9 476.9;" xml:space="preserve">
<style type="text/css">
	.st0{fill:#E2E5ED;}
	.st1{fill:#F5F4EA;}
	.st2{fill:#FFFFFF;}
	.st3{fill:#E5E0C8;}
	.st4{fill:none;stroke:#232A40;stroke-width:4;stroke-linecap:round;stroke-linejoin:round;stroke-miterlimit:10;}
	.st5{fill:#222A3F;}
	.st6{fill:#F0BF55;}
	.st7{fill:#232A40;}
	.st8{fill:none;stroke:#EEBD64;stroke-width:4.0849;stroke-linecap:round;stroke-linejoin:round;stroke-miterlimit:10;}
	.st9{opacity:0.15;}
	.st10{fill:#EEBD64;}
	.st11{fill:none;stroke:#434E63;stroke-width:7;stroke-linecap:round;stroke-linejoin:round;stroke-miterlimit:10;}
</style>
<g>
	<ellipse class="st0" cx="382" cy="399.8" rx="273.1" ry="13.7"/>
	<g>
		<path class="st1" d="M578.2,153.8v-18.5c0-2.8-2.3-5.1-5.1-5.1H196c-2.8,0-5.1,2.3-5.1,5.1v255.8c0,2.8,2.3,5.1,5.1,5.1h377.2
			c2.8,0,5.1-2.3,5.1-5.1V156.4V153.8L578.2,153.8z"/>
		<g>
			<path class="st2" d="M578.2,153.8v-18.5c0-2.8-1.9-5.1-4.3-5.1h-28.3c2.1,0,3.9,2.3,3.9,5.1v18.5h0l0,2.6v234.7
				c0,2.8-1.7,5.1-3.9,5.1H256.6l0,0H574c2.4,0,4.3-2.3,4.3-5.1V156.4V153.8L578.2,153.8z"/>
			<polygon class="st3" points="190.9,391.2 190.9,135.4 190.9,135.4 190.9,135.4 190.9,391.2 190.9,391.2 			"/>
		</g>
		<g>
			<path class="st4" d="M578.2,153.8L578.2,153.8l0-18.5c0-2.8-2.3-5.1-5.1-5.1H196c-2.8,0-5.1,2.3-5.1,5.1v255.8
				c0,2.8,2.3,5.1,5.1,5.1h377.2c2.8,0,5.1-2.3,5.1-5.1V156.4L578.2,153.8z M196,134h377.2c0.7,0,1.3,0.6,1.3,1.3v18.5l-379.9,0
				v-18.4C194.6,134.6,195.2,134,196,134z M573.2,392.5H196c-0.7,0-1.3-0.6-1.3-1.3V157.5l379.9,0v233.6
				C574.5,391.9,573.9,392.5,573.2,392.5z"/>
			<circle class="st5" cx="204.8" cy="144.7" r="2.8"/>
			<circle class="st5" cx="216" cy="144.7" r="2.8"/>
			<circle class="st5" cx="227.2" cy="144.7" r="2.8"/>
		</g>
		<g>
			<path class="st6" d="M559,178.9h-14.2c-0.4,0-0.7-0.3-0.7-0.7v-4.8c0-0.4,0.3-0.7,0.7-0.7H559c0.4,0,0.7,0.3,0.7,0.7v4.8
				C559.7,178.6,559.4,178.9,559,178.9z"/>
			<path class="st6" d="M532.2,178.9H518c-0.4,0-0.7-0.3-0.7-0.7v-4.8c0-0.4,0.3-0.7,0.7-0.7h14.2c0.4,0,0.7,0.3,0.7,0.7v4.8
				C532.8,178.6,532.5,178.9,532.2,178.9z"/>
			<path class="st6" d="M505.3,178.9h-14.2c-0.4,0-0.7-0.3-0.7-0.7v-4.8c0-0.4,0.3-0.7,0.7-0.7h14.2c0.4,0,0.7,0.3,0.7,0.7v4.8
				C505.9,178.6,505.6,178.9,505.3,178.9z"/>
			<path class="st6" d="M478.4,178.9h-14.2c-0.4,0-0.7-0.3-0.7-0.7v-4.8c0-0.4,0.3-0.7,0.7-0.7h14.2c0.4,0,0.7,0.3,0.7,0.7v4.8
				C479.1,178.6,478.8,178.9,478.4,178.9z"/>
			<circle class="st6" cx="215.4" cy="175.8" r="9.2"/>
		</g>
		<g>
			<path class="st3" d="M525.5,337.2l-90.1-112c-5.4-6.7-15.7-6.7-21.1,0l-45.1,56.4c-4.6,5.8-13,6.8-18.8,2.2l-18.3-14.3
				c-5.3-4.1-12.8-3.7-17.7,0.9L246.7,336c-8.7,8.4-2.8,23.2,9.4,23.2H515C526.3,359.2,532.6,346,525.5,337.2z"/>
			<circle class="st3" cx="285.5" cy="220.2" r="25.9"/>
		</g>
		<path class="st7" d="M474.9,267.5H296.1c-0.9,0-1.6-0.7-1.6-1.6v-9.7c0-0.9,0.7-1.6,1.6-1.6h178.8c0.9,0,1.6,0.7,1.6,1.6v9.7
			C476.6,266.8,475.8,267.5,474.9,267.5z"/>
		<path class="st2" d="M456.7,279.4H314.4c-0.4,0-0.7-0.3-0.7-0.7v-5c0-0.4,0.3-0.7,0.7-0.7h142.3c0.4,0,0.7,0.3,0.7,0.7v5
			C457.4,279.1,457.1,279.4,456.7,279.4z"/>
		<path class="st2" d="M446.3,290.5H324.8c-0.4,0-0.7-0.3-0.7-0.7v-5c0-0.4,0.3-0.7,0.7-0.7h121.5c0.4,0,0.7,0.3,0.7,0.7v5
			C446.9,290.2,446.6,290.5,446.3,290.5z"/>
		<g>
			<path class="st7" d="M367.7,316.2h-20.8c-0.3,0-0.6-0.3-0.6-0.6v-2.3c0-0.3,0.3-0.6,0.6-0.6h20.8c0.3,0,0.6,0.3,0.6,0.6v2.3
				C368.3,315.9,368,316.2,367.7,316.2z"/>
			<path class="st7" d="M379.6,309.1v10.5H335v-10.5H379.6 M380.1,307.2h-45.7c-0.8,0-1.4,0.6-1.4,1.4v11.5c0,0.8,0.6,1.4,1.4,1.4
				h45.7c0.8,0,1.4-0.6,1.4-1.4v-11.5C381.6,307.8,380.9,307.2,380.1,307.2L380.1,307.2z"/>
			<g>
				<path class="st6" d="M436.8,321.6h-46c-0.7,0-1.3-0.6-1.3-1.3v-11.9c0-0.7,0.6-1.3,1.3-1.3h46c0.7,0,1.3,0.6,1.3,1.3v11.9
					C438.1,321,437.5,321.6,436.8,321.6z"/>
				<path class="st2" d="M424.2,316.2h-20.8c-0.3,0-0.6-0.3-0.6-0.6v-2.3c0-0.3,0.3-0.6,0.6-0.6h20.8c0.3,0,0.6,0.3,0.6,0.6v2.3
					C424.8,315.9,424.5,316.2,424.2,316.2z"/>
			</g>
		</g>
	</g>
	<line class="st8" x1="190.9" y1="93.5" x2="573.1" y2="93.5"/>
	<line class="st8" x1="190.9" y1="97.7" x2="190.9" y2="89.5"/>
	<line class="st8" x1="577.2" y1="97.7" x2="577.2" y2="89.4"/>
	<line class="st8" x1="154.7" y1="393.8" x2="154.7" y2="137.7"/>
	<line class="st8" x1="158.9" y1="393.8" x2="150.6" y2="393.8"/>
	<line class="st8" x1="158.8" y1="133.7" x2="150.5" y2="133.7"/>
	<path class="st9" d="M481.2,333.1v-6.3h-8.9v6.3H481.2z M578.2,157.2v144.7c0,0.1,0,0.1,0,0.2v0.1v90c0,1.9-1.5,3.4-3.4,3.4
		l-146.1,0H194.2c-1.9,0-3.4-1.5-3.4-3.4V157.2c0-1.9,1.5-3.4,3.4-3.4h380.6C576.7,153.8,578.2,155.3,578.2,157.2z M571.5,388.9
		v-83.3h-82.7v83.3H571.5z M571.5,298.6v-138H432.1v138H571.5z M482,388.9v-49.1l-49.9,0v49.1H482z M481.2,320.1v-14.5h-13.1v14.5
		H481.2z M460,333.1v-26.9h-27.9v26.9H460z M425.4,388.9v-85.5c-0.2-0.5-0.3-1-0.3-1.5V160.6H197.6v228.3H425.4z"/>
	<path class="st10" d="M486.9,396.3c-16.8,0-31.3-5.7-42-16.6c-10.7-10.8-16.7-26.2-16.6-42.2c-0.1-15.2,6.5-24.1,12-28.9
		c6.3-5.5,14.8-8.8,23.3-8.9c6-0.1,12.4,2.6,17.1,7.1c4.5,4.4,7,10.1,7.1,16c0,4.8-1.6,8.8-4.7,11.8c-3.2,3-7.7,4.7-12.3,4.5
		c-5.9-0.2-10.4-5.1-10.4-9.2c0-5,3-7.6,5.9-7.6c1.4,0,2.6,1.2,2.6,2.6c0,1.4-1.2,2.6-2.6,2.6c-0.2,0.1-0.7,0.8-0.7,2.5
		c0,1.3,2.1,3.9,5.4,4c3.3,0.1,6.4-1,8.5-3c2.1-2,3.1-4.7,3.1-8c-0.1-4.5-2-8.9-5.5-12.3c-3.7-3.6-8.6-5.7-13.2-5.7
		c-0.1,0-0.1,0-0.2,0c-10.5,0.1-30.3,7.1-30.2,32.6c-0.1,14.7,5.4,28.8,15.1,38.6c9.7,9.8,23,15,38.3,15c58.3,0,85.4-28.8,85.4-90.7
		c0-23.5-9.1-59.5-34.7-89.8c-19-22.5-53.6-49.4-110.7-49.4c-49.1,0-91.6,12-126.4,35.8c-27.8,19-50.8,45.6-68.3,78.9
		c-29.9,57-33.4,114.7-33.4,115.3c-0.1,1.4-1.3,2.5-2.7,2.4c-1.4-0.1-2.5-1.3-2.4-2.7c0-0.6,3.6-59.3,33.9-117.3
		c17.9-34.1,41.4-61.3,69.9-80.8c35.6-24.4,79.2-36.8,129.4-36.8c59.1,0,95,27.8,114.7,51.2c22.1,26.3,35.9,62,35.9,93.2
		C577.4,365,547.8,396.3,486.9,396.3z"/>
	<line class="st11" x1="339.6" y1="70.3" x2="429.5" y2="70.3"/>
	<line class="st11" x1="131.9" y1="216.1" x2="131.9" y2="305.9"/>
	<g>
		<path class="st7" d="M475.8,351l16.5,3.1c1.6,0.3,2.7-1.6,1.6-2.9l-28.5-31c-1.1-1.2-3-0.4-3,1.2v43.2c0,1.7,2.3,2.4,3.2,0.9
			l8.5-13.7C474.4,351.2,475.1,350.9,475.8,351z"/>
		<path class="st7" d="M500.9,375l-2.6-1.5l-2.6-1.5c-1-0.6-2.2,0.1-2.2,1.3v1.2h-4.4V370h1.2c1.1,0,1.8-1.2,1.3-2.2l-1.5-2.6
			l-1.5-2.6c-0.6-1-2-1-2.5,0l-1.5,2.6l-1.5,2.6c-0.6,1,0.1,2.2,1.3,2.2h1.2v4.4h-4.4v-1.2c0-1.1-1.2-1.8-2.2-1.3l-2.6,1.5l-2.6,1.5
			c-1,0.6-1,2,0,2.5l2.6,1.5l2.6,1.5c1,0.6,2.2-0.1,2.2-1.3v-1.2h4.4v4.4h-1.2c-1.1,0-1.8,1.2-1.3,2.2l1.5,2.6l1.5,2.6
			c0.6,1,2,1,2.5,0l1.5-2.6l1.5-2.6c0.6-1-0.1-2.2-1.3-2.2h-1.2v-4.4h4.4v1.2c0,1.1,1.2,1.8,2.2,1.3l2.6-1.5l2.6-1.5
			C501.9,377,501.9,375.6,500.9,375z"/>
	</g>
</g>
</svg>
